<svg xmlns="http://www.w3.org/2000/svg" viewBox="0 0 32 32" fill="none" role="img" aria-label="PixelBrief">
  <rect width="32" height="32" rx="8" fill="#0B1F5C"/>
  <defs>
    <mask id="pb-fav">
      <rect width="32" height="32" fill="white"/>
      <path fill="black" d="M13.5 5.5h4.5v1.75h-1.25v2.25h-1.75c-.6 0-1.1.5-1.1 1.1v7.75c0 .6.5 1.1 1.1 1.1h1.75v2.25c0 .9-.7 1.55-1.55 1.55h-0.9c-1.15 0-2.05-.9-2.05-2.05V6.85c0-.6.5-1.1 1.1-1.1z"/>
    </mask>
  </defs>
  <g mask="url(#pb-fav)" shape-rendering="geometricPrecision">
    <path fill="#7AA2FF" d="M12.05 14L12.05 4.69L16.83 4.69Q18.39 4.69 19.17 5.44Q19.95 6.18 19.95 7.55Q19.95 8.96 19.10 9.75Q18.25 10.55 16.51 10.55L14.94 10.55L14.94 14L12.05 14M14.94 6.59L14.94 8.66L15.64 8.66Q16.48 8.66 16.81 8.37Q17.15 8.08 17.15 7.63Q17.15 7.20 16.86 6.89Q16.56 6.59 15.76 6.59"/>
    <path fill="#2B60F5" d="M11.70 29L11.70 19.69L17.08 19.69Q18.43 19.69 19.15 20.36Q19.87 21.03 19.87 22.01Q19.87 22.84 19.35 23.43Q19.01 23.82 18.35 24.05Q19.35 24.29 19.83 24.88Q20.30 25.46 20.30 26.35Q20.30 27.08 19.96 27.65Q19.63 28.23 19.04 28.57Q18.68 28.78 17.95 28.87Q16.98 29 16.66 29L11.70 29M14.60 21.58L14.60 23.34L15.85 23.34Q16.52 23.34 16.79 23.11Q17.05 22.88 17.05 22.44Q17.05 22.04 16.79 21.81Q16.52 21.58 15.87 21.58L14.60 21.58M14.60 25.12L14.60 27L16.07 27Q16.81 27 17.11 26.74Q17.42 26.47 17.42 26.03Q17.42 25.62 17.12 25.37Q16.82 25.12 16.06 25.12"/>
  </g>
</svg>
