<svg xmlns="http://www.w3.org/2000/svg" viewBox="0 0 220 48" fill="none" role="img" aria-label="PixelBrief">
  <rect width="220" height="48" rx="14" fill="#0B1F5C"/>
  <defs>
    <mask id="pb-nav">
      <rect width="48" height="48" fill="white"/>
      <path fill="black" d="M19.5 9h6.8v2.6h-1.9v3.4h-2.6c-.95 0-1.7.75-1.7 1.7v11.7c0 .95.75 1.7 1.7 1.7h2.6v3.4c0 1.3-1.05 2.35-2.35 2.35h-1.35c-1.75 0-3.1-1.35-3.1-3.1V10.9c0-.95.75-1.7 1.7-1.7z"/>
    </mask>
  </defs>
  <g mask="url(#pb-nav)" shape-rendering="geometricPrecision">
    <path fill="#7AA2FF" d="M18.23 21L18.23 7.40L25.22 7.40Q27.50 7.40 28.63 8.48Q29.77 9.57 29.77 11.57Q29.77 13.63 28.53 14.79Q27.29 15.95 24.75 15.95L22.45 15.95L22.45 21L18.23 21M22.45 10.16L22.45 13.20L23.48 13.20Q24.70 13.20 25.19 12.78Q25.68 12.35 25.68 11.69Q25.68 11.05 25.25 10.61Q24.83 10.16 23.65 10.16"/>
    <path fill="#2B60F5" d="M17.71 41L17.71 27.40L25.58 27.40Q27.55 27.40 28.60 28.37Q29.65 29.35 29.65 30.79Q29.65 31.99 28.90 32.85Q28.40 33.43 27.44 33.76Q28.90 34.12 29.59 34.97Q30.29 35.83 30.29 37.13Q30.29 38.19 29.79 39.03Q29.30 39.88 28.45 40.37Q27.92 40.68 26.85 40.81Q25.43 41 24.97 41L17.71 41M21.95 30.15L21.95 32.73L23.78 32.73Q24.77 32.73 25.15 32.40Q25.54 32.06 25.54 31.42Q25.54 30.82 25.15 30.49Q24.77 30.15 23.81 30.15L21.95 30.15M21.95 35.32L21.95 38.08L24.10 38.08Q25.18 38.08 25.63 37.69Q26.07 37.31 26.07 36.66Q26.07 36.06 25.63 35.69Q25.19 35.32 24.09 35.32"/>
  </g>
  <text x="62" y="31" font-family="Manrope, Helvetica Neue, Arial, sans-serif" font-size="18" font-weight="700" letter-spacing="-0.4" fill="#FFFFFF">PixelBrief</text>
</svg>
