<svg xmlns="http://www.w3.org/2000/svg" viewBox="167 160 707 707" fill="none" role="img" aria-label="PixelBrief">
  <path fill="#2B60F5" transform="translate(366.0526123046875,191.74603271484375)" d="M0 0 C1.16 -0 2.33 -0.01 3.53 -0.01 C6.73 -0.02 9.93 -0.01 13.12 -0.01 C16.59 -0 20.05 -0.01 23.51 -0.02 C30.29 -0.02 37.06 -0.02 43.84 -0.02 C49.35 -0.01 54.86 -0.01 60.38 -0.01 C61.16 -0.01 61.95 -0.01 62.76 -0.01 C64.36 -0.02 65.96 -0.02 67.56 -0.02 C82.53 -0.02 97.51 -0.02 112.48 -0 C125.3 0 138.11 0 150.93 -0.01 C165.84 -0.02 180.75 -0.02 195.66 -0.02 C197.26 -0.01 198.85 -0.01 200.45 -0.01 C200.84 -0.01 200.84 -0.01 202.83 -0.01 C208.32 -0.01 213.81 -0.01 219.31 -0.02 C226.02 -0.02 232.74 -0.02 239.45 -0.01 C242.87 -0.01 246.28 -0.01 249.7 -0.01 C269.08 -0.04 287.98 0.04 306.63 5.88 C307.78 6.23 308.92 6.57 310.1 6.93 C319.25 9.81 327.63 13.51 335.95 18.25 C336.61 18.58 337.27 18.91 337.95 19.25 C337.95 19.91 337.95 20.57 337.95 21.25 C338.64 21.33 339.34 21.4 340.05 21.48 C343.73 22.46 346.31 24.4 349.26 26.69 C349.81 27.1 350.36 27.51 350.93 27.93 C352.31 28.98 353.63 30.11 354.95 31.25 C354.95 31.91 354.95 32.57 354.95 33.25 C355.61 33.25 356.27 33.25 356.95 33.25 C356.95 33.91 356.95 34.57 356.95 35.25 C357.24 35.38 357.24 35.38 358.71 36 C374.47 44.81 384.75 70.45 389.97 86.75 C391.17 91.06 392.19 95.39 393.13 99.75 C393.3 100.51 393.47 101.27 393.64 102.05 C401.04 137.85 395.82 179.29 377.95 211.25 C376.23 213.77 374.45 216.09 372.47 218.4 C370.99 220.2 369.91 221.95 368.82 224 C366.86 227.41 364.76 229.52 361.95 232.25 C361.08 233.17 360.22 234.08 359.33 235.02 C346.87 248.05 332.66 257.12 316.06 264.18 C313.95 265.25 313.95 265.25 312.95 267.25 C322.52 267.58 332.09 267.91 341.95 268.25 C343.52 272.98 344.2 275.26 344.21 279.92 C344.21 281.01 344.22 282.1 344.23 283.22 C344.22 283.8 344.22 283.8 344.21 286.73 C344.21 287.93 344.22 289.14 344.22 290.38 C344.22 292.91 344.22 295.45 344.21 297.99 C344.2 301.87 344.21 305.76 344.22 309.64 C344.22 312.11 344.22 314.58 344.21 317.04 C344.22 318.21 344.22 319.37 344.23 320.57 C344.22 321.11 344.22 321.11 344.21 323.85 C344.2 324.8 344.2 325.75 344.2 326.73 C343.93 329.44 343.53 331.04 341.95 333.25 C338.6 334.44 335.34 334.38 331.81 334.37 C330.55 334.38 329.29 334.38 327.99 334.38 C326.6 334.37 325.21 334.37 323.82 334.37 C322.35 334.37 320.88 334.37 319.41 334.37 C315.42 334.37 311.44 334.36 307.45 334.36 C303.29 334.35 299.12 334.35 294.96 334.35 C287.07 334.34 279.18 334.34 271.3 334.33 C262.32 334.31 253.34 334.31 244.36 334.3 C225.89 334.29 207.42 334.28 188.95 334.25 C187.04 328.74 186.78 324.7 187.13 318.94 C187.17 318.14 187.2 317.33 187.23 316.51 C188.11 300.65 197.7 288.33 206.82 275.94 C208.2 274.05 209.58 272.15 210.95 270.25 C211.35 269.7 211.76 269.14 212.18 268.57 C224.81 251.12 227.9 236.74 227.95 215.25 C227.97 213.58 228 211.9 228.03 210.23 C228.25 191.24 227.47 172.23 226.95 153.25 C226.35 153.24 225.75 153.23 225.13 153.22 C218.92 153.11 212.71 153 206.49 152.88 C204.17 152.84 201.85 152.8 199.53 152.76 C196.2 152.7 192.87 152.64 189.55 152.57 C188.5 152.55 187.46 152.54 186.38 152.52 C185.42 152.5 184.46 152.48 183.47 152.46 C182.62 152.44 181.77 152.43 180.89 152.41 C178.95 152.25 178.95 152.25 177.95 151.25 C177.82 149.75 177.77 148.24 177.74 146.73 C177.72 145.77 177.7 144.81 177.68 143.82 C177.67 143.3 177.67 143.3 177.63 140.66 C177.61 139.59 177.59 138.53 177.57 137.43 C177.5 134.02 177.44 130.61 177.38 127.19 C177.34 124.88 177.3 122.58 177.25 120.27 C177.15 114.6 177.04 108.93 176.95 103.25 C163.93 103.18 150.92 103.13 137.91 103.1 C131.86 103.08 125.82 103.06 119.78 103.03 C113.94 102.99 108.11 102.98 102.27 102.97 C100.05 102.96 97.83 102.95 95.6 102.94 C92.48 102.91 89.36 102.91 86.24 102.91 C85.33 102.9 84.42 102.89 83.48 102.88 C74.72 102.92 66.4 105.02 59.95 111.25 C58.3 113.47 57.08 115.74 55.95 118.25 C55.45 119.26 54.95 120.27 54.43 121.31 C52.59 125.64 52.4 129.72 52.27 134.37 C52.24 135.24 52.21 136.11 52.18 137.01 C51.83 146.79 51.75 156.58 51.71 166.37 C51.71 167.32 51.7 168.28 51.7 169.26 C51.68 174.31 51.66 179.35 51.65 184.39 C51.64 189.55 51.61 194.7 51.57 199.85 C51.54 203.87 51.53 207.89 51.53 211.91 C51.52 213.81 51.51 215.71 51.49 217.61 C51.36 231.63 51.66 245.5 60.43 257.19 C62.54 260.06 64.13 263.16 65.77 266.31 C66.95 268.25 66.95 268.25 68.4 269.7 C70.36 271.67 71.55 273.86 72.95 276.25 C73.98 277.74 75.02 279.22 76.07 280.69 C84.76 293.08 91.71 303.03 92.76 318.44 C92.81 319.21 92.87 319.99 92.92 320.78 C93.14 325.4 92.74 328.91 90.95 333.25 C86.14 334.03 81.53 334.38 76.67 334.39 C75.97 334.39 75.27 334.39 74.55 334.39 C72.22 334.4 69.9 334.4 67.58 334.4 C65.91 334.4 64.23 334.41 62.56 334.41 C58.03 334.42 53.5 334.42 48.98 334.42 C46.15 334.42 43.32 334.42 40.49 334.43 C30.63 334.44 20.76 334.44 10.9 334.44 C1.69 334.44 -7.51 334.45 -16.71 334.47 C-24.61 334.48 -32.51 334.48 -40.41 334.48 C-45.13 334.48 -49.85 334.49 -54.57 334.5 C-59 334.51 -63.43 334.51 -67.87 334.5 C-69.5 334.5 -71.13 334.5 -72.75 334.51 C-74.97 334.51 -77.19 334.51 -79.41 334.5 C-80.65 334.5 -81.89 334.5 -83.17 334.5 C-86.05 334.25 -86.05 334.25 -88.05 332.25 C-88.3 330.46 -88.3 330.46 -88.3 328.23 C-88.31 327.39 -88.31 326.54 -88.32 325.67 C-88.31 324.73 -88.31 323.8 -88.3 322.83 C-88.3 321.84 -88.3 320.85 -88.31 319.84 C-88.31 316.5 -88.3 313.16 -88.3 309.82 C-88.3 307.44 -88.3 305.05 -88.3 302.67 C-88.31 296.85 -88.3 291.02 -88.29 285.2 C-88.28 278.41 -88.28 271.62 -88.28 264.83 C-88.28 252.69 -88.27 240.55 -88.26 228.42 C-88.24 216.67 -88.24 204.92 -88.24 193.18 C-88.24 192.46 -88.24 191.74 -88.24 190.99 C-88.24 190.27 -88.24 189.55 -88.24 188.81 C-88.24 175.42 -88.23 162.02 -88.22 148.63 C-88.22 143.91 -88.22 139.19 -88.22 134.47 C-88.22 128.09 -88.21 121.7 -88.2 115.32 C-88.2 112.99 -88.2 110.66 -88.2 108.33 C-88.2 97.89 -88.17 87.47 -87.61 77.05 C-87.59 76.69 -87.59 76.69 -87.49 74.86 C-87.18 69.73 -86.4 64.99 -84.74 60.13 C-84.63 59.78 -84.63 59.78 -84.06 57.99 C-82.46 53.13 -80.7 48.63 -78.05 44.25 C-77.63 43.47 -77.21 42.68 -76.78 41.87 C-73.17 35.58 -68.7 30.54 -63.62 25.44 C-62.99 24.82 -62.37 24.2 -61.73 23.56 C-44.98 7.2 -23.18 -0.1 0 0 Z "/>
  <path fill="#2B60F5" transform="translate(288.93919372558594,532.6257781982422)" d="M0 0 C0.7 -0 1.4 -0.01 2.12 -0.01 C4.45 -0.02 6.79 -0.01 9.13 0 C10.81 -0 12.49 -0 14.16 -0.01 C18.72 -0.02 23.28 -0.01 27.83 0 C32.6 0.02 37.36 0.01 42.13 0.01 C50.14 0.01 58.14 0.02 66.15 0.04 C75.4 0.06 84.66 0.06 93.91 0.06 C102.82 0.05 111.72 0.06 120.62 0.07 C124.41 0.07 128.2 0.07 131.99 0.07 C136.45 0.07 140.91 0.08 145.37 0.09 C147.01 0.1 148.65 0.1 150.29 0.1 C152.52 0.09 154.76 0.1 156.99 0.11 C157.62 0.11 157.62 0.11 160.79 0.12 C163.97 0.37 166.2 1.01 169.06 2.37 C169.15 6.35 169.2 10.33 169.25 14.31 C169.27 15.43 169.3 16.55 169.32 17.7 C169.38 24.53 168.78 30.09 166.06 36.37 C165.66 37.33 165.26 38.29 164.84 39.28 C161.05 46.95 156.53 54.02 151.82 61.15 C148.59 66.05 145.6 71.07 142.62 76.13 C142.11 76.87 141.59 77.61 141.06 78.37 C140.4 78.37 139.74 78.37 139.06 78.37 C138.96 79.08 138.85 79.79 138.74 80.52 C137.75 84.68 135.67 88.11 133.63 91.85 C128.79 102.7 128.61 112.97 128.66 124.62 C128.66 126.37 128.66 128.12 128.65 129.87 C128.65 133.51 128.66 137.15 128.67 140.79 C128.69 145.46 128.68 150.13 128.66 154.8 C128.65 158.4 128.65 162 128.66 165.6 C128.66 167.32 128.66 169.04 128.65 170.76 C128.64 173.16 128.66 175.56 128.67 177.96 C128.67 178.31 128.67 178.31 128.65 180.11 C128.72 184.96 128.72 184.96 130.59 187.21 C131.07 187.6 131.56 187.98 132.06 188.37 C132.06 189.03 132.06 189.69 132.06 190.37 C153.75 190.47 175.44 190.54 197.12 190.58 C207.19 190.6 217.26 190.63 227.33 190.68 C236.11 190.72 244.89 190.74 253.66 190.75 C258.31 190.76 262.96 190.77 267.6 190.8 C271.98 190.82 276.35 190.83 280.73 190.83 C282.33 190.83 283.94 190.84 285.54 190.85 C287.74 190.87 289.93 190.87 292.12 190.86 C293.35 190.86 294.57 190.86 295.84 190.87 C299.67 190.28 301.33 189.09 304.06 186.37 C304.72 184.34 304.72 184.34 304.77 182.09 C304.8 181.19 304.83 180.29 304.86 179.37 C304.86 178.36 304.87 177.35 304.87 176.31 C304.9 175.23 304.92 174.15 304.94 173.03 C305 169.66 305.02 166.28 305.04 162.91 C305.06 160.07 305.1 157.23 305.13 154.4 C305.2 148.8 305.25 143.21 305.29 137.61 C305.3 135.35 305.32 133.09 305.35 130.82 C305.64 98.86 305.64 98.86 298.06 86.62 C297.38 85.5 296.7 84.37 296 83.2 C294.44 80.93 292.98 79.29 291.06 77.37 C290.12 75.78 289.23 74.15 288.37 72.5 C286.11 68.26 283.73 64.14 281.19 60.06 C278.34 55.47 275.53 50.86 272.81 46.19 C272.19 45.12 271.56 44.05 270.92 42.96 C270.29 41.77 269.67 40.57 269.06 39.37 C268.69 38.66 268.33 37.95 267.95 37.22 C264.59 29.94 264.56 23.23 264.75 15.31 C264.76 14.08 264.77 12.84 264.78 11.57 C264.89 2.54 264.89 2.54 266.06 1.37 C267.45 1.27 268.84 1.24 270.24 1.24 C271.14 1.24 272.04 1.23 272.97 1.23 C273.46 1.23 273.46 1.23 275.99 1.23 C277.03 1.23 278.07 1.22 279.15 1.22 C282.63 1.21 286.11 1.21 289.59 1.21 C292.01 1.2 294.43 1.2 296.85 1.2 C301.95 1.19 307.05 1.19 312.14 1.19 C318.63 1.19 325.12 1.18 331.61 1.16 C336.62 1.15 341.64 1.15 346.65 1.15 C349.04 1.14 351.43 1.14 353.82 1.13 C388.15 1.03 417.23 4.79 443.42 28.51 C453.7 38.97 459.21 53.97 460.06 68.37 C460.13 69.43 460.19 70.48 460.26 71.57 C460.87 89.96 454.6 105.86 442.06 119.37 C433.04 127.81 418.4 135.08 406.06 136.37 C407.06 138.37 407.06 138.37 410.56 139.71 C412.06 140.2 413.56 140.7 415.06 141.19 C431.44 146.78 447.1 157.11 456.06 172.37 C456.72 173.38 457.38 174.4 458.06 175.44 C467.49 192.47 468.17 215.46 463.06 233.87 C459 247.22 451.93 258.56 442.06 268.37 C441.3 269.19 440.53 270 439.74 270.84 C435.43 275.35 431.6 278.55 426.06 281.37 C424.54 282.33 423.02 283.29 421.5 284.25 C411.81 290.02 401.75 293.65 390.94 296.62 C390.04 296.87 389.15 297.12 388.23 297.37 C377.72 300.15 367.31 301.66 356.45 301.99 C355.38 302.03 354.3 302.07 353.19 302.11 C341.06 302.49 328.93 302.51 316.8 302.5 C314.28 302.5 311.76 302.51 309.24 302.51 C303.17 302.51 297.11 302.51 291.04 302.51 C286.11 302.51 281.17 302.51 276.23 302.51 C275.88 302.51 275.88 302.51 274.08 302.51 C272.64 302.51 271.2 302.51 269.76 302.51 C256.32 302.51 242.88 302.51 229.44 302.5 C217.96 302.5 206.48 302.5 195 302.5 C181.6 302.51 168.2 302.51 154.79 302.51 C153.36 302.51 151.92 302.51 150.49 302.51 C149.78 302.51 149.08 302.51 148.35 302.51 C143.43 302.51 138.51 302.51 133.59 302.51 C126.94 302.51 120.3 302.51 113.65 302.51 C111.23 302.5 108.81 302.5 106.39 302.51 C56.68 302.55 56.68 302.55 39.06 294.37 C38.18 293.97 37.3 293.56 36.4 293.15 C30.7 290.41 24.96 287.41 20.06 283.37 C20.06 282.71 20.06 282.05 20.06 281.37 C19.48 281.12 18.9 280.87 18.31 280.61 C15.79 279.23 14.13 277.67 12.12 275.62 C11.47 274.97 10.83 274.31 10.16 273.64 C1.22 263.99 -4.22 252.99 -7.88 240.37 C-8.08 239.71 -8.28 239.05 -8.48 238.37 C-12.23 224.31 -11.1 208.58 -11.12 194.14 C-11.12 192.06 -11.13 189.97 -11.14 187.89 C-11.16 181.1 -11.17 174.32 -11.18 167.54 C-11.18 165.2 -11.19 162.85 -11.19 160.51 C-11.21 149.52 -11.22 138.52 -11.23 127.53 C-11.24 114.85 -11.27 102.18 -11.31 89.5 C-11.34 79.68 -11.35 69.86 -11.36 60.04 C-11.36 54.18 -11.37 48.32 -11.39 42.46 C-11.42 36.97 -11.42 31.47 -11.41 25.98 C-11.41 23.96 -11.42 21.94 -11.43 19.92 C-11.45 17.17 -11.44 14.42 -11.43 11.68 C-11.44 10.87 -11.45 10.07 -11.46 9.24 C-11.42 6.03 -11.38 3.93 -9.34 1.38 C-6.11 0.03 -3.51 -0 0 0 Z "/>
</svg>
