<svg xmlns="http://www.w3.org/2000/svg" viewBox="0 0 128 128" fill="none" role="img" aria-label="PixelBrief">
  <rect width="128" height="128" rx="28" fill="#050D2E"/>
  <defs>
    <mask id="pb-cut-dark">
      <rect width="128" height="128" fill="white"/>
      <path fill="black" d="M54 22h18v7h-5v9h-7c-2.5 0-4.5 2-4.5 4.5v31c0 2.5 2 4.5 4.5 4.5h7v9c0 3.5-2.8 6.2-6.2 6.2h-3.6c-4.6 0-8.2-3.6-8.2-8.2V27.5c0-2.5 2-4.5 4.5-4.5z"/>
    </mask>
  </defs>
  <g mask="url(#pb-cut-dark)" shape-rendering="geometricPrecision">
    <path fill="#7AA2FF" d="M46.38 56L46.38 14.48L67.71 14.48Q74.68 14.48 78.15 17.80Q81.62 21.11 81.62 27.23Q81.62 33.51 77.83 37.05Q74.05 40.59 66.29 40.59L59.27 40.59L59.27 56L46.38 56M59.27 22.92L59.27 32.18L62.41 32.18Q66.12 32.18 67.63 30.89Q69.13 29.61 69.13 27.59Q69.13 25.64 67.82 24.28Q66.52 22.92 62.92 22.92"/>
    <path fill="#2B60F5" d="M44.81 116L44.81 74.48L68.83 74.48Q74.83 74.48 78.05 77.46Q81.26 80.43 81.26 84.82Q81.26 88.50 78.97 91.13Q77.44 92.89 74.49 93.91Q78.97 94.99 81.08 97.61Q83.19 100.23 83.19 104.19Q83.19 107.42 81.69 110Q80.19 112.57 77.58 114.07Q75.97 115.01 72.71 115.43Q68.38 116 66.96 116L44.81 116M57.76 82.89L57.76 90.77L63.33 90.77Q66.34 90.77 67.51 89.73Q68.69 88.70 68.69 86.75Q68.69 84.93 67.51 83.91Q66.34 82.89 63.42 82.89L57.76 82.89M57.76 98.67L57.76 107.08L64.30 107.08Q67.61 107.08 68.97 105.90Q70.33 104.73 70.33 102.75Q70.33 100.91 68.98 99.79Q67.64 98.67 64.27 98.67"/>
  </g>
</svg>

