<svg xmlns="http://www.w3.org/2000/svg" viewBox="0 0 520 96" fill="none" role="img" aria-label="PixelBrief">
  <rect width="520" height="96" rx="24" fill="#0B1F5C"/>
  <defs>
    <mask id="pb-lock">
      <rect width="96" height="96" fill="white"/>
      <path fill="black" d="M39 18h13.5v5.2h-3.8v6.8h-5.2c-1.9 0-3.4 1.5-3.4 3.4v23.4c0 1.9 1.5 3.4 3.4 3.4h5.2v6.8c0 2.6-2.1 4.7-4.7 4.7h-2.7c-3.5 0-6.2-2.7-6.2-6.2V21.8c0-1.9 1.5-3.4 3.4-3.4z"/>
    </mask>
  </defs>
  <g mask="url(#pb-lock)" shape-rendering="geometricPrecision">
    <path fill="#7AA2FF" d="M36.46 42L36.46 14.80L50.43 14.80Q55 14.80 57.27 16.97Q59.54 19.14 59.54 23.15Q59.54 27.27 57.06 29.59Q54.59 31.91 49.50 31.91L44.90 31.91L44.90 42L36.46 42M44.90 20.33L44.90 26.40L46.96 26.40Q49.39 26.40 50.38 25.55Q51.36 24.71 51.36 23.39Q51.36 22.11 50.50 21.22Q49.65 20.33 47.29 20.33"/>
    <path fill="#2B60F5" d="M35.43 82L35.43 54.80L51.16 54.80Q55.10 54.80 57.20 56.75Q59.31 58.70 59.31 61.57Q59.31 63.98 57.81 65.71Q56.80 66.86 54.87 67.53Q57.81 68.23 59.19 69.95Q60.57 71.67 60.57 74.26Q60.57 76.38 59.59 78.07Q58.60 79.75 56.90 80.74Q55.84 81.35 53.71 81.63Q50.87 82 49.94 82L35.43 82M43.91 60.31L43.91 65.47L47.56 65.47Q49.53 65.47 50.30 64.79Q51.07 64.11 51.07 62.83Q51.07 61.65 50.30 60.98Q49.53 60.31 47.62 60.31L43.91 60.31M43.91 70.64L43.91 76.16L48.19 76.16Q50.37 76.16 51.26 75.39Q52.15 74.62 52.15 73.32Q52.15 72.11 51.27 71.38Q50.38 70.64 48.18 70.64"/>
  </g>
  <text x="124" y="60" font-family="Manrope, Helvetica Neue, Arial, sans-serif" font-size="42" font-weight="700" letter-spacing="-1.2" fill="#FFFFFF">PixelBrief</text>
</svg>
